<svg xmlns="http://www.w3.org/2000/svg" version="1.0" width="445.000000" height="377.000000" preserveAspectRatio="xMidYMid meet" style=""><rect id="backgroundrect" width="100%" height="100%" x="0" y="0" fill="none" stroke="none"/>


<g class="currentLayer" style=""><title>Layer 1</title><g transform="translate(0,377) scale(0.10000000149011612,-0.10000000149011612) " fill="#919191" stroke="none" id="svg_1" class="" fill-opacity="1">
<path d="M2401 3295 c-171 -346 -175 -355 -160 -383 7 -15 54 -105 102 -198 l88 -170 547 -98 c301 -54 566 -103 590 -108 72 -18 110 -83 81 -141 -6 -12 -193 -204 -415 -427 l-403 -405 30 -235 c16 -129 31 -241 34 -247 6 -18 645 -335 645 -321 0 7 -29 252 -65 543 -62 511 -63 531 -47 562 9 17 181 201 382 409 211 220 358 380 350 382 -8 1 -251 47 -539 102 -429 82 -528 103 -546 120 -12 12 -127 234 -256 495 -128 261 -236 475 -239 474 -3 0 -84 -160 -179 -354z" id="svg_2" fill="#919191" fill-opacity="1"/>
<path d="M1585 2834 c-126 -246 -239 -452 -250 -460 -11 -7 -249 -55 -530 -105 -280 -51 -512 -94 -515 -97 -3 -2 158 -164 358 -360 l362 -357 0 -55 c-1 -30 -27 -262 -59 -515 -32 -253 -57 -462 -56 -463 2 -2 205 93 451 212 250 121 459 216 474 216 16 0 225 -95 475 -216 246 -118 449 -214 450 -212 2 2 -23 214 -56 473 -32 259 -59 488 -59 510 0 39 6 46 362 402 199 199 360 364 358 366 -3 2 -234 45 -515 96 -280 51 -519 98 -530 106 -11 7 -123 214 -250 459 -126 245 -232 446 -235 446 -3 0 -108 -201 -235 -446z" id="svg_3" fill="#919191" fill-opacity="1"/>
</g></g></svg>