<svg width="35" height="32" viewBox="0 0 35 32" fill="none" xmlns="http://www.w3.org/2000/svg">
<path d="M34.8833 26.0562C34.6065 24.3512 33.8259 22.5889 32.6248 20.9594C32.4359 20.7027 32.2403 20.4563 32.0434 20.2319C29.5372 17.3478 25.5121 16.4284 22.0316 17.9465C20.5052 18.617 19.1963 19.7008 18.2524 21.0752C18.2316 21.1075 18.1726 21.2261 18.1294 21.3131C17.865 21.8466 17.5632 22.4544 17.0089 22.4437L14.4876 22.3546C12.3719 22.3587 10.3439 23.2012 8.84815 24.6975C7.35233 26.194 6.5109 28.2223 6.50781 30.338V31.0639C6.50781 31.1022 6.52296 31.1386 6.54991 31.1656C6.57686 31.1926 6.61332 31.2077 6.65157 31.2077H34.0222C34.0774 31.2082 34.1279 31.1769 34.1523 31.1271C34.9278 29.5417 35.1714 27.8367 34.8832 26.0562L34.8833 26.0562Z" fill="#9D2123"/>
<path d="M6.50619 18.1461C6.50311 20.1527 7.04501 22.1229 8.07384 23.8458C9.7814 22.1529 12.0892 21.2036 14.4937 21.2049H14.5132L16.8333 21.2875C16.9195 21.1538 17.0325 20.9281 17.0936 20.8031C17.1539 20.673 17.2224 20.5467 17.2984 20.425C17.6445 19.9208 18.0352 19.4493 18.4664 19.0157C19.3564 18.1162 20.4096 17.3946 21.5694 16.8887C23.488 16.0485 25.6268 15.8514 27.6666 16.3268C28.0142 16.4071 28.3569 16.5062 28.6937 16.6235C28.3073 14.1332 27.1091 11.8401 25.2855 10.1007C23.1967 8.09973 20.4877 6.99768 17.6591 6.99768C11.5101 6.99794 6.50586 11.999 6.50586 18.1457L6.50619 18.1461Z" fill="#9D2123"/>
<path d="M15.702 4.78277C15.8544 4.78277 16.0008 4.72218 16.1086 4.61437C16.2164 4.50656 16.277 4.36023 16.277 4.20775V1.52313C16.277 1.20559 16.0198 0.94812 15.702 0.94812C15.3844 0.94812 15.127 1.20559 15.127 1.52313V4.20775C15.127 4.36023 15.1875 4.50656 15.2953 4.61437C15.4034 4.72218 15.5495 4.78277 15.702 4.78277Z" fill="#9D2123"/>
<path d="M21.3498 5.17649C21.417 5.2037 21.4892 5.21756 21.5618 5.21756C21.7967 5.21833 22.0085 5.07586 22.0965 4.85817L23.0884 2.36249C23.2057 2.06753 23.0615 1.73305 22.7663 1.61576C22.4713 1.49844 22.1368 1.64271 22.0195 1.93792L21.0276 4.43406C20.9131 4.72799 21.0569 5.05939 21.3498 5.17645L21.3498 5.17649Z" fill="#9D2123"/>
<path d="M4.59447 23.404L2.18658 24.5884C2.04514 24.6529 1.93552 24.7717 1.88315 24.9183C1.83079 25.0646 1.84003 25.2261 1.90882 25.3657C1.97736 25.5051 2.09955 25.6109 2.24767 25.6589C2.39553 25.7069 2.55673 25.6928 2.69407 25.6199L5.10479 24.4359C5.38973 24.295 5.50653 23.9497 5.3656 23.6648C5.22468 23.3799 4.87941 23.2631 4.59449 23.404L4.59447 23.404Z" fill="#9D2123"/>
<path d="M4.31956 19.2174C4.3057 19.0654 4.23177 18.9252 4.11446 18.8277C3.99688 18.7301 3.84569 18.6834 3.69372 18.6975L1.01916 18.9447C0.70162 18.9594 0.455954 19.2284 0.470326 19.5462C0.484702 19.8637 0.753982 20.1094 1.07152 20.0948H1.12466L3.80363 19.8427C4.11835 19.8116 4.34886 19.5321 4.3196 19.2174H4.31956Z" fill="#9D2123"/>
<path d="M1.27883 14.529L3.94827 14.8113C3.96855 14.8126 3.98908 14.8126 4.00936 14.8113C4.3269 14.828 4.59772 14.5839 4.61415 14.2664C4.63058 13.9486 4.38672 13.678 4.06891 13.6613L1.3979 13.3795L1.39815 13.3797C1.24567 13.3623 1.09294 13.4064 0.973315 13.5022C0.853692 13.5982 0.777193 13.7378 0.76102 13.8903C0.744848 14.0428 0.790284 14.1953 0.887063 14.3141C0.983842 14.433 1.124 14.5082 1.27648 14.5233L1.27883 14.529Z" fill="#9D2123"/>
<path d="M6.30556 9.13111L4.13694 7.54986C4.01398 7.45976 3.85996 7.42254 3.70928 7.4459C3.55859 7.46952 3.42357 7.55166 3.33346 7.67488C3.14607 7.93132 3.20203 8.29122 3.45847 8.47858L5.62762 10.0598H5.62788C5.75058 10.154 5.9064 10.1949 6.05965 10.1728C6.21315 10.1507 6.35101 10.0678 6.44239 9.94253C6.53352 9.81752 6.57074 9.66067 6.54482 9.50793C6.51915 9.35519 6.43289 9.2194 6.30557 9.13109L6.30556 9.13111Z" fill="#9D2123"/>
<path d="M9.59785 6.08137C9.75752 6.35168 10.1046 6.44383 10.3774 6.28827C10.6503 6.13296 10.7481 5.78719 10.5969 5.51204L9.26644 3.17886C9.19225 3.04384 9.06698 2.94424 8.91886 2.9024C8.77049 2.86056 8.61159 2.87981 8.47785 2.95605C8.34385 3.03229 8.24631 3.1591 8.20677 3.30799C8.16724 3.45687 8.18906 3.61552 8.26735 3.74823L9.59785 6.08137Z" fill="#9D2123"/>
<path d="M26.3914 7.14458C26.5049 7.2465 26.654 7.29938 26.8065 7.29116C26.9587 7.28321 27.1017 7.21492 27.2036 7.10146L29.0005 5.10482V5.10456C29.1068 4.99213 29.163 4.84119 29.1566 4.68665C29.1505 4.53186 29.0819 4.38631 28.9669 4.28286C28.8517 4.17915 28.6997 4.12653 28.5451 4.13628C28.3909 4.14629 28.2469 4.21817 28.146 4.33548L26.349 6.33212V6.33238C26.2469 6.44559 26.194 6.59498 26.202 6.74721C26.2099 6.89943 26.2779 7.04242 26.3914 7.14458Z" fill="#9D2123"/>
<path d="M29.0213 10.8831C29.0908 11.0189 29.2115 11.1216 29.3568 11.1683C29.5018 11.2151 29.6597 11.2022 29.7955 11.1326L32.1854 9.91073C32.468 9.76595 32.5797 9.41914 32.4346 9.13653C32.2898 8.8539 31.9433 8.74224 31.6607 8.88727L29.2708 10.112C28.9897 10.2568 28.8783 10.6013 29.0213 10.8831L29.0213 10.8831Z" fill="#9D2123"/>
<path d="M30.6144 15.5444C30.6845 15.7918 30.9106 15.9628 31.1678 15.9626C31.2207 15.9626 31.2736 15.9551 31.3244 15.941L33.912 15.2079C34.2133 15.1178 34.3864 14.8025 34.3004 14.4999C34.2144 14.1975 33.9017 14.0201 33.598 14.1018L31.0141 14.8342C30.8667 14.8752 30.7417 14.973 30.6667 15.1063C30.5918 15.2395 30.5728 15.3971 30.6144 15.5445L30.6144 15.5444Z" fill="#9D2123"/>
</svg>
