<svg width="65" height="60" viewBox="0 0 65 60" fill="none" xmlns="http://www.w3.org/2000/svg">
<g clip-path="url(#clip0_0_3)">
<path d="M9.00023 25C14.6002 26.6 15.6669 37.6667 15.5002 43C27.5002 63.5 61.0002 36.5 53.5002 26C46.0002 15.5 65.0002 14 61.0002 4.99998C57.0002 -4.00002 24.5002 -4.00002 12.0002 3.49998C-0.499772 11 2.00023 23 9.00023 25Z" fill="#00733E"/>
</g>
<g clip-path="url(#clip1_0_3)">
<g filter="url(#filter0_d_0_3)">
<path d="M23.126 34.5835H22.126V35.5835V40.8093C22.126 43.9276 24.6539 46.4555 27.7722 46.4555C30.8905 46.4555 33.4184 43.9276 33.4184 40.8093V35.5835V34.5835H32.4184H23.126Z" fill="white" stroke="white" stroke-width="2"/>
<path d="M23.126 34.5835H22.126V35.5835V40.2597V41.1059L22.9605 41.2459L23.126 40.2597C22.9605 41.2459 22.9609 41.246 22.9613 41.2461L22.9622 41.2462L22.964 41.2465L22.968 41.2472L22.9777 41.2487L23.004 41.2526C23.0246 41.2555 23.0512 41.259 23.084 41.2628C23.1495 41.2703 23.2394 41.279 23.3536 41.2862C23.582 41.3005 23.9073 41.309 24.3294 41.2913C25.174 41.2559 26.4033 41.1157 28.0162 40.7099C29.7065 40.2846 30.9805 39.5741 31.8374 38.9632C32.2659 38.6577 32.5914 38.3763 32.8143 38.1659C32.9259 38.0606 33.0121 37.9729 33.0729 37.9085C33.1033 37.8763 33.1274 37.8499 33.1452 37.83L33.1672 37.8052L33.1747 37.7966L33.1775 37.7933L33.1787 37.7918L33.1793 37.7912C33.1795 37.7909 33.1798 37.7906 32.4184 37.1422L33.1798 37.7906L33.4184 37.5104V37.1422V35.5835V34.5835H32.4184H23.126Z" fill="white" stroke="white" stroke-width="2"/>
<path d="M45.8591 99.3117V68.8918L49.7224 74.6868L50.3314 75.6004L51.1843 74.9089L56.7298 70.4125L57.2833 69.9637L57.0398 69.294L52.6764 57.2949C52.8409 57.2606 52.993 57.2203 53.1319 57.1728C53.5611 57.0262 54.1723 56.6983 54.307 55.9719C54.4221 55.3517 54.0927 54.8332 53.899 54.5657C53.6688 54.2478 53.3535 53.9223 53.0458 53.6191C52.8947 53.4702 52.7402 53.3213 52.5844 53.1712C52.0624 52.6683 51.5261 52.1516 51.0575 51.5759C50.45 50.8298 50.0919 50.139 50.054 49.4933C49.9157 47.1427 48.3452 45.3916 46.818 44.2309C45.2716 43.0558 43.5801 42.3375 42.7982 42.0768L42.776 42.0694L42.7534 42.063L31.7578 38.9617L30.5535 38.622L30.4877 39.8716C30.4475 40.6357 30.1872 41.7683 29.5829 42.6507C29.0145 43.4805 28.1559 44.0885 26.7558 44.001C25.3089 43.9106 24.5783 43.25 24.1769 42.5029C23.7397 41.689 23.6623 40.6957 23.7394 40.041L23.9277 38.4403L22.4099 38.9824C21.1054 39.4483 17.4143 40.7225 13.1411 42.0719C8.73646 43.4628 7.21137 46.1957 7.09296 47.8878L-1.33189 68.8126L-1.67633 69.6681L-0.851465 70.0805L3.58031 72.2964L9.96662 76.7391L9.08796 100.023L9.04795 101.084L10.1088 101.061L44.8806 100.311L45.8591 100.29V99.3117Z" fill="white" stroke="white" stroke-width="2"/>
<path d="M45.4578 100.162H46.4809L46.4576 99.1393L45.4084 53.1266L45.3275 49.5793L43.5442 52.6467C42.1981 54.962 39.7347 60.9354 40.7154 70.0317C41.2004 75.7433 41.3345 80.1301 41.0402 83.5042C40.7452 86.8865 40.0275 89.1441 38.8996 90.6837C37.794 92.1927 36.208 93.1279 33.9081 93.687C31.5773 94.2536 28.5903 94.4151 24.7746 94.4151C21.0796 94.4151 18.4958 93.6719 16.6976 92.4866C14.9146 91.3113 13.8097 89.6396 13.1779 87.5893C11.8866 83.3983 12.613 77.7923 13.6186 72.2114C15.2535 63.1375 13.4895 54.1544 12.3869 50.7435L10.4357 51.0261L9.23668 99.1372L9.21114 100.162H10.2364H45.4578Z" fill="white" stroke="white" stroke-width="2"/>
<circle cx="27.2566" cy="48.1007" r="1.28194" fill="white" stroke="white" stroke-width="2"/>
<circle cx="27.2566" cy="53.7397" r="1.28194" fill="white" stroke="white" stroke-width="2"/>
<rect x="32.0701" y="21.8225" width="8.67508" height="7.46143" rx="3.73072" fill="white" stroke="white" stroke-width="2"/>
<rect x="13.8662" y="21.8224" width="8.67508" height="7.46143" rx="3.73072" fill="white" stroke="white" stroke-width="2"/>
<rect x="23.625" y="41.358" width="12.4915" height="18.4866" rx="2.20247" fill="white" stroke="white" stroke-width="2"/>
<path d="M17.7323 9.94552H16.7323V10.9455V26.5018C16.7323 32.5503 21.0452 37.739 26.9919 38.8445L27.1747 38.8784L27.3574 38.8445C33.3041 37.739 37.617 32.5503 37.617 26.5018V10.9455V9.94552H36.617H17.7323Z" fill="white" stroke="white" stroke-width="2"/>
<path d="M18.6299 9.94551H17.6299V10.9455V26.9435C17.6299 32.7438 21.7382 37.7315 27.4311 38.8428L27.6227 38.8802L27.8142 38.8428C33.5071 37.7315 37.6154 32.7438 37.6154 26.9435V10.9455V9.94551H36.6154H18.6299Z" fill="white" stroke="white" stroke-width="2"/>
<path d="M16.9132 25.6969L18.8579 25.3689V18.2618C20.3367 18.2479 21.7857 17.7378 23.0032 17.1173C24.2694 16.4719 25.3807 15.6584 26.1618 14.9771C27.5715 15.4717 28.9661 15.4433 30.146 15.202C30.985 15.0304 31.738 14.747 32.3456 14.4448C32.7956 15.0785 33.3345 15.6142 33.8508 16.044C34.3446 16.4551 34.8421 16.7895 35.2686 17.0367C35.0868 21.914 35.2957 24.3823 35.6091 25.5335C35.6905 25.8326 35.803 26.1384 35.981 26.3827C36.1435 26.6055 36.6194 27.0801 37.3097 26.846C37.8175 26.6737 38.0117 26.2243 38.0708 26.0677C38.14 25.8841 38.1768 25.6884 38.1883 25.4997C39.5305 19.6552 40.02 15.4382 39.979 12.3958C39.9379 9.35232 39.3646 7.37807 38.4732 6.13522C37.7198 5.08472 36.7909 4.62767 35.9555 4.4758C36.0718 4.19058 36.1601 3.91569 36.2187 3.65106C36.3903 2.87586 36.3203 2.1009 35.8448 1.46676C35.3911 0.861824 34.7003 0.565499 34.0244 0.422873C33.339 0.278249 32.5424 0.263683 31.703 0.326707C28.3778 0.576348 23.4986 2.12592 19.4514 3.66203C17.5151 4.39697 16.2802 5.87781 15.5549 7.67549C14.8392 9.4493 14.6018 11.5646 14.6361 13.708C14.7045 17.9975 15.8678 22.6859 16.9132 25.6969Z" fill="white" stroke="white" stroke-width="2"/>
<rect x="20.9279" y="22.233" width="3.79854" height="4.63307" rx="1.89927" fill="white" stroke="white" stroke-width="2"/>
<rect x="30.5213" y="22.233" width="3.79854" height="4.63307" rx="1.89927" fill="white" stroke="white" stroke-width="2"/>
<path d="M31.0655 30.898C31.0771 30.9001 31.0756 30.9007 31.0642 30.8977C31.0646 30.8978 31.0651 30.8979 31.0655 30.898ZM25.0809 30.898C25.0813 30.8979 25.0818 30.8978 25.0822 30.8977C25.0708 30.9007 25.0693 30.9001 25.0809 30.898ZM28.0732 32.7174C29.2298 32.7174 30.2594 32.3541 31.0019 31.9354C31.3734 31.7259 31.6991 31.488 31.947 31.2467C32.0697 31.1273 32.1927 30.9883 32.2922 30.8332C32.3756 30.7031 32.5204 30.4436 32.5204 30.1083C32.5204 29.6688 32.281 29.3438 32.0174 29.1624C31.8009 29.0133 31.5714 28.9579 31.4335 28.9321C31.1453 28.8782 30.798 28.877 30.4884 28.8839C30.2115 28.8901 29.9331 28.9031 29.6405 28.9167C29.1715 28.9385 28.6663 28.962 28.0732 28.962C27.4801 28.962 26.9749 28.9385 26.5059 28.9167C26.2133 28.9031 25.9349 28.8901 25.658 28.8839C25.3484 28.877 25.0011 28.8782 24.7129 28.9321C24.575 28.9579 24.3455 29.0133 24.129 29.1624C23.8654 29.3438 23.626 29.6688 23.626 30.1083C23.626 30.4436 23.7708 30.7031 23.8542 30.8332C23.9537 30.9883 24.0767 31.1273 24.1994 31.2467C24.4473 31.488 24.773 31.7259 25.1445 31.9354C25.887 32.3541 26.9166 32.7174 28.0732 32.7174Z" fill="white" stroke="white" stroke-width="2"/>
<path d="M27.6255 29.4992C28.3422 29.4992 28.9636 29.2588 29.3972 29.0086C29.6158 28.8824 29.8104 28.7402 29.9641 28.597C30.039 28.5273 30.1231 28.4398 30.1971 28.3378C30.234 28.287 30.2813 28.2147 30.3228 28.1247C30.359 28.0462 30.424 27.8841 30.424 27.6716C30.424 27.4166 30.33 27.1626 30.1459 26.9652C29.9844 26.7922 29.8039 26.7161 29.7007 26.6821C29.5087 26.6188 29.3317 26.6207 29.2664 26.6218C29.1121 26.6243 28.9246 26.6485 28.7841 26.6667C28.7791 26.6674 28.7741 26.668 28.7691 26.6686C28.7592 26.6699 28.7492 26.6712 28.7392 26.6725C28.4123 26.7148 28.0354 26.7635 27.6255 26.7635C27.2156 26.7635 26.8386 26.7148 26.5117 26.6725C26.5017 26.6712 26.4917 26.6699 26.4818 26.6686C26.4769 26.668 26.4719 26.6674 26.4668 26.6667C26.3263 26.6485 26.1388 26.6243 25.9845 26.6218C25.9193 26.6207 25.7422 26.6188 25.5503 26.6821C25.447 26.7161 25.2665 26.7922 25.1051 26.9652C24.9209 27.1626 24.8269 27.4166 24.8269 27.6716C24.8269 27.8841 24.8919 28.0462 24.9281 28.1247C24.9696 28.2147 25.017 28.287 25.0538 28.3378C25.1278 28.4398 25.2119 28.5273 25.2868 28.597C25.4405 28.7402 25.6351 28.8824 25.8538 29.0086C26.2873 29.2588 26.9087 29.4992 27.6255 29.4992Z" fill="white" stroke="white" stroke-width="2"/>
<path d="M24.7541 21.221C24.7539 21.2211 24.7537 21.2211 24.7535 21.2212L24.7541 21.221ZM21.1992 21.221C21.191 21.2185 21.1919 21.2183 21.1998 21.2212L21.1992 21.221ZM22.9767 23.3555C23.6267 23.3555 24.2339 23.3215 24.6954 23.2614C24.919 23.2323 25.1486 23.1922 25.3423 23.1326C25.4318 23.105 25.5748 23.0554 25.7158 22.9657C25.7992 22.9127 26.2249 22.6326 26.2249 22.0629C26.2249 21.814 26.1526 21.3249 25.7543 20.889C25.3326 20.4274 24.6933 20.1852 23.876 20.1852C23.1043 20.1852 22.2035 20.3992 21.5358 20.6098C21.1931 20.7179 20.8766 20.8362 20.6325 20.9469C20.5152 21.0002 20.3859 21.0645 20.2722 21.1375C20.2191 21.1717 20.1322 21.2311 20.0466 21.3158C20.0035 21.3585 19.9367 21.431 19.8757 21.533C19.8174 21.6305 19.7285 21.8151 19.7285 22.0629C19.7285 22.6326 20.1542 22.9127 20.2376 22.9657C20.3785 23.0554 20.5215 23.105 20.6111 23.1326C20.8048 23.1922 21.0343 23.2323 21.2579 23.2614C21.7195 23.3215 22.3267 23.3555 22.9767 23.3555Z" fill="white" stroke="white" stroke-width="2"/>
<path d="M30.7928 21.2206C30.793 21.2207 30.7931 21.2207 30.7933 21.2208L30.7928 21.2206ZM34.3476 21.2206C34.3558 21.2181 34.355 21.2179 34.347 21.2208L34.3476 21.2206ZM32.5702 23.3551C31.9202 23.3551 31.313 23.3211 30.8514 23.261C30.6279 23.2319 30.3983 23.1918 30.2046 23.1322C30.115 23.1046 29.9721 23.055 29.8311 22.9653C29.7477 22.9123 29.322 22.6322 29.322 22.0625C29.322 21.8136 29.3943 21.3245 29.7926 20.8886C30.2143 20.427 30.8535 20.1848 31.6709 20.1848C32.4426 20.1848 33.3433 20.3988 34.0111 20.6094C34.3538 20.7175 34.6703 20.8358 34.9143 20.9465C35.0317 20.9998 35.161 21.0641 35.2747 21.1371C35.3278 21.1712 35.4147 21.2307 35.5003 21.3154C35.5434 21.3581 35.6102 21.4306 35.6711 21.5326C35.7295 21.6301 35.8184 21.8147 35.8184 22.0625C35.8184 22.6322 35.3927 22.9123 35.3093 22.9653C35.1683 23.055 35.0254 23.1046 34.9358 23.1322C34.7421 23.1918 34.5125 23.2319 34.2889 23.261C33.8274 23.3211 33.2202 23.3551 32.5702 23.3551Z" fill="white" stroke="white" stroke-width="2"/>
<path d="M20.6035 29.4992C20.6052 29.4993 20.6069 29.4995 20.6087 29.4997C20.5876 29.4993 20.5838 29.4972 20.6035 29.4992ZM26.7324 30.1366C26.7391 30.1389 26.7382 30.139 26.7313 30.1362C26.7316 30.1363 26.732 30.1365 26.7324 30.1366ZM26.5983 28.8647C26.5995 28.8649 26.5916 28.8709 26.5714 28.8824C26.5871 28.8704 26.5972 28.8646 26.5983 28.8647ZM23.8771 28.036C23.0628 28.036 22.3097 27.8531 21.6846 27.6951C21.6627 27.6896 21.6403 27.6839 21.6175 27.6781C21.3578 27.6121 21.0455 27.5328 20.7981 27.5087C20.6819 27.4973 20.3987 27.4745 20.1079 27.5984C19.9364 27.6715 19.7451 27.803 19.6054 28.0213C19.4679 28.2362 19.4299 28.4578 19.4299 28.6298C19.4299 28.9502 19.5577 29.2045 19.6467 29.35C19.7463 29.513 19.8709 29.6581 19.9958 29.7822C20.2473 30.0322 20.5769 30.2732 20.95 30.4826C21.6967 30.9017 22.7255 31.2549 23.8771 31.2549C24.8827 31.2549 25.8251 31.1597 26.544 30.9902C26.8956 30.9074 27.2497 30.794 27.5402 30.6321C27.7459 30.5175 28.3243 30.1554 28.3243 29.4423C28.3243 29.0568 28.1433 28.7529 27.9273 28.5564C27.7374 28.3836 27.5242 28.2932 27.3744 28.2424C27.0731 28.1403 26.7142 28.0974 26.3873 28.0735C25.8238 28.0325 25.087 28.0339 24.3194 28.0355C24.1728 28.0357 24.025 28.036 23.8771 28.036Z" fill="white" stroke="white" stroke-width="2"/>
<path d="M34.9443 29.4992C34.9426 29.4993 34.9409 29.4995 34.9391 29.4997C34.9602 29.4993 34.9639 29.4973 34.9443 29.4992ZM28.8154 30.1366C28.8087 30.1389 28.8096 30.139 28.8165 30.1362C28.8161 30.1364 28.8158 30.1365 28.8154 30.1366ZM28.9495 28.8648C28.9483 28.8649 28.9562 28.8709 28.9764 28.8824C28.9607 28.8704 28.9506 28.8646 28.9495 28.8648ZM31.6707 28.036C32.485 28.036 33.2381 27.8531 33.8632 27.6951C33.8851 27.6896 33.9075 27.6839 33.9302 27.6781C34.19 27.6122 34.5022 27.5329 34.7497 27.5087C34.8658 27.4973 35.1491 27.4745 35.4399 27.5984C35.6113 27.6715 35.8027 27.803 35.9424 28.0213C36.0799 28.2362 36.1179 28.4578 36.1179 28.6298C36.1179 28.9502 35.9901 29.2045 35.9011 29.35C35.8014 29.513 35.6769 29.6581 35.552 29.7822C35.3005 30.0322 34.9709 30.2732 34.5978 30.4826C33.8511 30.9018 32.8223 31.2549 31.6707 31.2549C30.6651 31.2549 29.7226 31.1597 29.0037 30.9902C28.6522 30.9074 28.2981 30.794 28.0076 30.6321C27.8018 30.5175 27.2235 30.1554 27.2235 29.4423C27.2235 29.0569 27.4045 28.753 27.6205 28.5564C27.8104 28.3836 28.0236 28.2932 28.1734 28.2425C28.4747 28.1403 28.8336 28.0974 29.1605 28.0735C29.724 28.0325 30.4608 28.0339 31.2283 28.0355C31.375 28.0358 31.5228 28.036 31.6707 28.036Z" fill="white" stroke="white" stroke-width="2"/>
<path d="M1.4594 68.7782L0.551607 68.2335L0.0595059 69.1708L-3.08794 75.166L-3.13397 75.2536L-3.16191 75.3486C-3.445 76.3111 -3.66347 77.8379 -3.40607 79.371C-3.14549 80.923 -2.37216 82.5839 -0.58053 83.5544C1.15029 84.4919 2.95661 84.4272 4.44397 84.0177C5.92008 83.6113 7.16286 82.8467 7.883 82.2418L7.98581 82.1554L8.0622 82.045L23.1709 60.2047C23.4105 59.9273 23.8198 59.5166 24.2745 59.1785C24.7905 58.7947 25.1781 58.6454 25.3751 58.6454H31.3497C32.3849 58.6817 33.4582 57.9034 34.3056 56.5239C35.1906 55.0834 35.9805 52.7786 36.4098 49.2221L36.5449 48.1023H35.417C35.4213 48.1023 35.398 48.1015 35.3429 48.0996C35.2859 48.0976 35.1948 48.0944 35.0652 48.0898C34.8299 48.0813 34.4956 48.069 34.085 48.0538C33.2639 48.0234 32.1391 47.9812 30.8945 47.9344C28.4055 47.8407 25.438 47.7283 23.4646 47.6534L22.9812 47.635L22.6667 48.0027L3.73202 70.1417L1.4594 68.7782Z" fill="white" stroke="white" stroke-width="2"/>
<path d="M43.8819 53.4011C43.943 53.4234 44.0051 53.443 44.068 53.4598C44.564 53.592 45.0692 53.5442 45.4887 53.451C45.8985 53.3599 46.3059 53.2073 46.6745 53.0355L54.7147 69.3886L52.9957 70.8927C52.9545 70.9184 52.9136 70.948 52.8736 70.982C52.6362 71.1831 52.5412 71.4408 52.513 71.6387C52.4655 71.9709 52.5836 72.2469 52.6367 72.3622C52.7688 72.6493 53.0172 72.995 53.3839 73.4237C56.6352 77.429 59.1175 79.2767 61.1611 79.87C63.3297 80.4996 64.8126 79.6678 65.7978 79.011C66.7336 78.3872 67.5729 77.6859 67.8779 76.5214C68.1631 75.4323 67.9223 74.1372 67.3951 72.4801C67.26 72.0557 66.9772 71.466 66.6225 70.7968C66.2574 70.1081 65.7824 69.2733 65.2276 68.335C64.1175 66.4571 62.6708 64.1353 61.1065 61.6829C58.0785 56.9357 54.5943 51.6746 52.2191 48.1439C52.3324 47.5372 52.3706 47.0269 52.3414 46.596C52.3055 46.0668 52.1629 45.5941 51.8671 45.2277C51.7632 45.0991 51.6496 44.9948 51.5315 44.9111C51.5555 44.4469 51.4959 44.0224 51.3363 43.644C51.0542 42.9749 50.5322 42.6174 50.0423 42.4445C49.8181 42.3654 49.5948 42.3222 49.3933 42.299C49.3346 41.9968 49.2377 41.7166 49.1006 41.4607C48.8161 40.93 48.3951 40.574 47.9376 40.3568C47.3434 40.0746 46.6995 40.0281 46.1608 40.0776C46.0162 39.955 45.8527 39.854 45.6722 39.7774C45.2623 39.6034 44.8326 39.5833 44.4488 39.6234C43.7025 39.7015 42.8709 40.0378 42.0749 40.431C41.0882 40.9184 39.9299 41.6164 38.8046 42.2947C38.1349 42.6983 37.4769 43.0949 36.8736 43.4358C36.4995 43.6473 36.1827 43.8579 35.9407 44.0733C35.7292 44.2616 35.4266 44.5816 35.3497 45.0361C35.2489 45.6324 35.5775 46.0646 35.8867 46.2851C36.1527 46.4747 36.4633 46.5656 36.6981 46.6171C37.1833 46.7235 37.8231 46.7553 38.4686 46.7473C38.3839 47.477 38.5269 48.2332 38.7371 48.8849C39.1596 50.1948 39.9806 51.5341 40.7697 52.5599C41.4257 53.4128 42.3002 54.0527 43.2952 53.7293C43.5283 53.6536 43.7225 53.5347 43.8819 53.4011ZM48.5556 42.2802C48.5558 42.2802 48.559 42.2802 48.5647 42.2804C48.5583 42.2804 48.5554 42.2803 48.5556 42.2802Z" fill="white" stroke="white" stroke-width="2"/>
</g>
<g filter="url(#filter1_d_0_3)">
<path d="M23.126 35.5835H32.4184V40.8093C32.4184 43.3753 30.3383 45.4555 27.7722 45.4555C25.2062 45.4555 23.126 43.3753 23.126 40.8093V35.5835Z" fill="#FEABA9"/>
<path d="M23.126 35.5835H32.4184V37.1422C32.4184 37.1422 30.8697 38.9608 27.7722 39.7401C24.6747 40.5195 23.126 40.2597 23.126 40.2597V35.5835Z" fill="#C96160"/>
<path d="M8.08538 48.1004L-0.404251 69.1861L4.09211 71.4343L10.9865 76.2304L10.0873 100.061L44.8591 99.3117V65.589L50.5545 74.1321L56.1 69.6358L51.3039 56.4464C56.8494 56.1645 49.2812 53.3864 49.0557 49.552C48.8301 45.7176 43.8917 43.4954 42.482 43.0255L31.4863 39.9242C31.3924 41.7098 30.3022 45.2246 26.6934 44.9991C23.0846 44.7735 22.5583 41.5218 22.7462 39.9242C21.4305 40.3941 17.7277 41.6722 13.4422 43.0255C9.15675 44.3788 8.08538 46.9726 8.08538 48.1004Z" fill="#F9B234"/>
<path d="M45.4578 99.1621L44.4087 53.1493C43.1597 55.2976 40.7517 61.0629 41.7109 69.9358C43.6593 92.8672 40.0622 95.4151 24.7746 95.4151C9.48698 95.4151 10.6361 83.1251 12.6344 72.0341C14.2331 63.1612 12.5012 54.3484 11.4354 51.051L10.2364 99.1621H45.4578Z" fill="#E7A42F"/>
<circle cx="27.2566" cy="48.1007" r="0.281939" fill="#616781"/>
<circle cx="27.2566" cy="53.7397" r="0.281939" fill="#616781"/>
<rect x="33.0701" y="22.8225" width="6.67508" height="5.46143" rx="2.73072" fill="#F59FA2"/>
<rect x="14.8662" y="22.8224" width="6.67508" height="5.46143" rx="2.73072" fill="#F59FA2"/>
<rect x="21.4102" y="39.1948" width="16.4528" height="25.4271" rx="1.20247" fill="#252339"/>
<path d="M17.7323 10.9455H36.617V26.5018C36.617 32.0685 32.6476 36.8439 27.1747 37.8613C21.7017 36.8439 17.7323 32.0685 17.7323 26.5018V10.9455Z" fill="#C95E68"/>
<path d="M18.6299 10.9455H36.6154V26.9435C36.6154 32.2653 32.8459 36.8417 27.6227 37.8613C22.3994 36.8417 18.6299 32.2654 18.6299 26.9435V10.9455Z" fill="#FFAAA5"/>
<path d="M17.8579 25.3689V17.1772C20.9753 17.7623 24.5525 15.178 25.9513 13.8127C28.7091 15.1 31.5967 13.8614 32.6959 13.0813C33.5352 14.8366 35.4436 16.0557 36.2929 16.4457C35.8433 27.0577 37.1922 26.3929 37.1922 25.3689C42.5878 1.96388 34.0448 5.62092 34.1946 5.62092C38.8409 -1.40059 27.8997 1.52504 19.8063 4.59695C13.3315 7.05448 15.8095 19.4689 17.8579 25.3689Z" fill="#343150"/>
<rect x="21.9279" y="23.233" width="1.79854" height="2.63307" rx="0.899272" fill="#332E4E"/>
<rect x="31.5213" y="23.233" width="1.79854" height="2.63307" rx="0.899272" fill="#332E4E"/>
<path d="M31.5204 30.1083C31.5204 30.5122 29.977 31.7174 28.0732 31.7174C26.1694 31.7174 24.626 30.5122 24.626 30.1083C24.626 29.7044 26.1694 29.962 28.0732 29.962C29.977 29.962 31.5204 29.7044 31.5204 30.1083Z" fill="white"/>
<path d="M29.424 27.6716C29.424 27.8239 28.6188 28.4992 27.6255 28.4992C26.6322 28.4992 25.8269 27.8239 25.8269 27.6716C25.8269 27.5192 26.6322 27.7635 27.6255 27.7635C28.6188 27.7635 29.424 27.5192 29.424 27.6716Z" fill="#E98689"/>
<path d="M25.2249 22.0629C25.2249 22.2245 24.2183 22.3555 22.9767 22.3555C21.735 22.3555 20.7285 22.2245 20.7285 22.0629C20.7285 21.9013 22.6343 21.1852 23.876 21.1852C25.1176 21.1852 25.2249 21.9013 25.2249 22.0629Z" fill="#332E4E"/>
<path d="M30.322 22.0625C30.322 22.2241 31.3286 22.3551 32.5702 22.3551C33.8118 22.3551 34.8184 22.2241 34.8184 22.0625C34.8184 21.9009 32.9126 21.1848 31.6709 21.1848C30.4293 21.1848 30.322 21.9009 30.322 22.0625Z" fill="#332E4E"/>
<path d="M20.4299 28.6298C20.4299 28.181 21.9732 29.036 23.8771 29.036C25.7809 29.036 27.3243 28.9936 27.3243 29.4423C27.3243 29.8911 25.7809 30.2549 23.8771 30.2549C21.9732 30.2549 20.4299 29.0785 20.4299 28.6298Z" fill="#332E4E"/>
<path d="M35.1179 28.6298C35.1179 28.181 33.5746 29.036 31.6707 29.036C29.7669 29.036 28.2235 28.9936 28.2235 29.4423C28.2235 29.8911 29.7669 30.2549 31.6707 30.2549C33.5746 30.2549 35.1179 29.0785 35.1179 28.6298Z" fill="#332E4E"/>
<path d="M0.944904 69.6357L3.94248 71.4342L21.931 48.6527C25.8778 48.8025 33.8014 49.1023 35.417 49.1023C34.5777 56.0567 32.3695 57.6953 31.3703 57.6454H25.3751C24.296 57.6454 22.9271 58.9443 22.3775 59.5938L7.23981 81.4761C5.99082 82.5252 2.77342 84.2338 -0.104246 82.6751C-2.98192 81.1164 -2.70214 77.3294 -2.20255 75.6308L0.944904 69.6357Z" fill="#FFA7A6"/>
<path d="M51.1545 48.3531C55.9007 55.3974 65.6028 70.1455 66.4421 72.7833C67.4913 76.0807 67.0416 76.9799 65.2431 78.179C63.4446 79.378 60.5969 80.7269 54.1521 72.7833C53.4327 71.944 53.4526 71.7342 53.5526 71.7342L55.9506 69.6359L47.1078 51.6504C46.2085 52.25 44.2601 53.1492 43.6606 51.9502C43.4607 52.5997 42.7613 53.5089 41.5623 51.9502C40.0635 50.0018 38.5647 47.0042 40.0635 45.6553C38.0151 45.8551 34.6079 45.8651 37.3657 44.3064C40.8129 42.358 44.8596 39.3604 45.7589 41.1589C46.7081 40.9091 48.5766 40.9791 48.4567 43.2572C48.4567 43.4069 51.1469 42.6599 50.4083 45.6426C50.5516 45.5758 51.8314 45.3746 51.1545 48.3531Z" fill="#FFA7A6"/>
</g>
</g>
<defs>
<filter id="filter0_d_0_3" x="-4.52052" y="-0.708761" width="73.5193" height="102.815" filterUnits="userSpaceOnUse" color-interpolation-filters="sRGB">
<feFlood flood-opacity="0" result="BackgroundImageFix"/>
<feColorMatrix in="SourceAlpha" type="matrix" values="0 0 0 0 0 0 0 0 0 0 0 0 0 0 0 0 0 0 127 0" result="hardAlpha"/>
<feOffset/>
<feComposite in2="hardAlpha" operator="out"/>
<feColorMatrix type="matrix" values="0 0 0 0 0 0 0 0 0 0 0 0 0 0 0 0 0 0 0.25 0"/>
<feBlend mode="normal" in2="BackgroundImageFix" result="effect1_dropShadow_0_3"/>
<feBlend mode="normal" in="SourceGraphic" in2="effect1_dropShadow_0_3" result="shape"/>
</filter>
<filter id="filter1_d_0_3" x="-2.52051" y="1.29127" width="69.52" height="98.7698" filterUnits="userSpaceOnUse" color-interpolation-filters="sRGB">
<feFlood flood-opacity="0" result="BackgroundImageFix"/>
<feColorMatrix in="SourceAlpha" type="matrix" values="0 0 0 0 0 0 0 0 0 0 0 0 0 0 0 0 0 0 127 0" result="hardAlpha"/>
<feOffset/>
<feComposite in2="hardAlpha" operator="out"/>
<feColorMatrix type="matrix" values="0 0 0 0 0 0 0 0 0 0 0 0 0 0 0 0 0 0 0.25 0"/>
<feBlend mode="normal" in2="BackgroundImageFix" result="effect1_dropShadow_0_3"/>
<feBlend mode="normal" in="SourceGraphic" in2="effect1_dropShadow_0_3" result="shape"/>
</filter>
<clipPath id="clip0_0_3">
<rect width="82" height="54" fill="white" transform="translate(0 6)"/>
</clipPath>
<clipPath id="clip1_0_3">
<rect width="65" height="60" rx="6" fill="white"/>
</clipPath>
</defs>
</svg>
