<svg width="25" height="34" viewBox="0 0 25 34" fill="none" xmlns="http://www.w3.org/2000/svg">
<path fill-rule="evenodd" clip-rule="evenodd" d="M10.161 2.42746C9.49903 1.2807 8.03188 0.887035 6.88487 1.5496C5.73811 2.2121 5.34493 3.67876 6.007 4.82528C6.05543 4.90984 6.10843 4.99054 6.16528 5.06595C6.08939 5.00957 6.00965 4.95657 5.92509 4.90719C4.77833 4.24518 3.31142 4.63833 2.64941 5.78505C1.98741 6.93274 2.38007 8.39971 3.52728 9.06123C3.61184 9.11013 3.69736 9.15326 3.78506 9.19036C3.6911 9.17976 3.59425 9.17398 3.49764 9.17398C2.17308 9.17301 1.09866 10.2468 1.09866 11.5713C1.09914 12.8959 2.17314 13.9699 3.49672 13.9699C3.59453 13.9699 3.69065 13.9641 3.78461 13.9528C3.6974 13.9906 3.61188 14.032 3.52756 14.0814C2.3803 14.7434 1.98713 16.2106 2.64969 17.3576C3.3117 18.5043 4.77886 18.898 5.92537 18.2354C6.00993 18.187 6.09064 18.134 6.16604 18.0767C6.10919 18.1526 6.05546 18.2328 6.00728 18.3169C5.34527 19.4646 5.73842 20.9305 6.88515 21.593C8.0324 22.2555 9.49931 21.8619 10.1613 20.7152C10.2102 20.6306 10.2533 20.5446 10.2905 20.4581C10.2794 20.5521 10.2733 20.6477 10.2733 20.7455C10.2729 22.0701 11.3462 23.1436 12.6714 23.1436C13.9955 23.1436 15.0695 22.0703 15.0695 20.7463C15.0695 20.6485 15.0642 20.5528 15.0524 20.4584C15.0895 20.5451 15.1326 20.6311 15.181 20.7154C15.8435 21.8622 17.3102 22.2559 18.4572 21.5933C19.6044 20.9308 19.9976 19.4648 19.3355 18.3171C19.2866 18.2333 19.2336 18.1523 19.1768 18.0765C19.2527 18.1338 19.3329 18.1875 19.4175 18.2359C20.5642 18.8984 22.0306 18.5048 22.6931 17.3581C23.3551 16.2108 22.962 14.7439 21.8153 14.0819C21.7307 14.0325 21.6447 13.9899 21.557 13.9528C21.6517 13.9638 21.7478 13.9699 21.8449 13.9699C23.1695 13.9704 24.2435 12.8966 24.2435 11.5718C24.243 10.2472 23.1697 9.17325 21.8454 9.17325C21.7481 9.17325 21.6515 9.17903 21.5575 9.19035C21.6447 9.15325 21.7307 9.11061 21.8153 9.06171C22.962 8.40013 23.3557 6.93322 22.6931 5.78553C22.0306 4.63877 20.564 4.2456 19.4175 4.90767C19.3329 4.95657 19.2522 5.00957 19.1763 5.06643C19.2332 4.99054 19.2869 4.91032 19.3351 4.82576C19.9976 3.679 19.6049 2.21258 18.4572 1.55008C17.3099 0.888072 15.8435 1.28122 15.181 2.42794C15.1326 2.51178 15.0897 2.59803 15.0524 2.685C15.0642 2.59105 15.0695 2.49468 15.0695 2.39856C15.0695 1.07331 13.9958 0 12.6714 0C11.3469 0 10.2729 1.07325 10.2729 2.39856C10.2729 2.49516 10.2787 2.59153 10.29 2.685C10.2529 2.59779 10.2102 2.51226 10.1613 2.42794L10.161 2.42746ZM13.8369 25.4879L18.6137 33.5993C18.694 33.7346 18.8474 33.799 19.0006 33.7602C19.1531 33.7219 19.2584 33.5923 19.2647 33.4354L19.4256 29.2999C19.4304 29.1814 19.4887 29.0804 19.5899 29.0173C19.6913 28.9542 19.8072 28.9455 19.9166 28.9944L23.976 30.7936C24.1174 30.8562 24.2757 30.8218 24.3783 30.7064C24.4814 30.591 24.4973 30.4296 24.4193 30.2968L20.2057 23.1439C19.9385 23.4325 19.6244 23.6864 19.2657 23.8936C18.1712 24.5253 16.8997 24.5811 15.8035 24.1567C15.3029 24.7804 14.6206 25.2506 13.8369 25.4882L13.8369 25.4879ZM9.53832 24.1564C8.44219 24.5809 7.1706 24.5245 6.07663 23.8933C5.71791 23.6866 5.40402 23.4322 5.1366 23.1436L0.92354 30.2965C0.845005 30.4293 0.860904 30.5909 0.964014 30.7061C1.06665 30.8215 1.22492 30.8559 1.36634 30.7933L5.42645 28.9941C5.53534 28.9452 5.65122 28.9537 5.75265 29.017C5.85359 29.0801 5.91213 29.1813 5.91695 29.2996L6.07836 33.4352C6.08463 33.592 6.18991 33.7216 6.34192 33.7599C6.4949 33.7987 6.64909 33.7344 6.72882 33.599L11.5056 25.4876C10.722 25.2501 10.0392 24.7798 9.53856 24.1561L9.53832 24.1564ZM12.5302 7.92321L11.67 9.93748C11.6492 9.98687 11.6056 10.0187 11.5519 10.0235L9.37069 10.2191C9.31214 10.2244 9.26541 10.2615 9.24734 10.3169C9.22975 10.3728 9.24517 10.4301 9.28926 10.4689L10.939 11.9089C10.9795 11.9445 10.9959 11.9956 10.9841 12.0481L10.4962 14.1831C10.483 14.24 10.5042 14.2958 10.5509 14.3303C10.5986 14.3643 10.6584 14.3669 10.7082 14.3373L12.5876 13.2134C12.6344 13.1857 12.6881 13.1857 12.7343 13.2134L14.6137 14.3373C14.6636 14.3672 14.7231 14.3643 14.7706 14.3303C14.8178 14.2958 14.8392 14.24 14.8257 14.1831L14.3379 12.0481C14.3261 11.9956 14.3422 11.9445 14.3829 11.9089L16.0327 10.4689C16.0763 10.4301 16.0922 10.3728 16.0741 10.3169C16.0561 10.2617 16.0093 10.2244 15.9515 10.2191L13.7703 10.0235C13.7166 10.0187 13.673 9.98687 13.6518 9.93748L12.792 7.92321C12.7691 7.86997 12.7192 7.83721 12.6607 7.83721C12.6021 7.83721 12.5523 7.87022 12.5294 7.92321H12.5302ZM7.05527 11.5713C7.05527 8.47032 9.57015 5.95564 12.671 5.95564C15.7713 5.95564 18.2862 8.47051 18.2862 11.5713C18.2862 14.6729 15.7713 17.1866 12.671 17.1866C9.56996 17.1866 7.05527 14.6729 7.05527 11.5713Z" fill="#DE7644"/>
</svg>
